<svg width="135" height="80" viewBox="0 0 135 80" xmlns="http://www.w3.org/2000/svg">
  <!-- 蓝色的Z字母部分 -->
  <path d="M32 22 L68 22 L68 32 L50 32 L68 48 L68 58 L32 58 L32 48 L50 48 L32 32 Z" 
        fill="#1e4a8c"/>
  
  <!-- 蓝色弧形装饰 -->
  <path d="M85 8 Q120 8 125 35 Q125 50 100 55 L95 50 Q115 45 115 35 Q112 18 85 18 Z" 
        fill="#1e4a8c"/>
  
  <!-- 红色的A字母部分 -->
  <path d="M78 25 L88 25 L98 55 L88 55 L86 48 L80 48 L78 55 L68 55 Z M81 38 L85 38 L83 32 Z" 
        fill="#dc2626"/>
  
  <!-- 蓝色底部弧形 -->
  <path d="M15 45 Q50 65 105 50 L108 58 Q45 75 10 52 Z" 
        fill="#1e4a8c"/>
  
  <!-- 红色箭头装饰 -->
  <path d="M105 45 L115 50 L105 55 L108 50 Z" 
        fill="#dc2626"/>
</svg>
